<svg xmlns="http://www.w3.org/2000/svg" width="185" height="60" viewBox="0 0 185 60">
    <defs>
        <linearGradient id="a" x1="0%" y1="100%" y2="0%">
            <stop offset="0%" stop-color="#7C673B"/>
            <stop offset="100%" stop-color="#AC9860"/>
        </linearGradient>
        <linearGradient id="b" x1="100%" x2="0%" y1="0%" y2="100%">
            <stop offset="0%" stop-color="#7C673B"/>
            <stop offset="100%" stop-color="#AC9860"/>
        </linearGradient>
        <linearGradient id="c" x1="0%" y1="100%" y2="0%">
            <stop offset="0%" stop-color="#DADCE0"/>
            <stop offset="100%" stop-color="#FFF"/>
        </linearGradient>
    </defs>
    <g fill="none" fill-rule="evenodd">
        <path fill="url(#a)" d="M47.725 10.458v6.289l-.002 4.55c-.627.115-1.254.232-1.881.351L45.84 33.72c.002.07.01.164.022.244l1.273 2.174-.974 2.6c-1.282 3.427-4.76 7.144-10.058 10.86a65.37 65.37 0 0 1-2.351 1.57 1817.778 1817.778 0 0 0-7.774 4.988l-.52.336-.522-.336c-2.59-1.67-5.182-3.336-7.773-4.988a65.07 65.07 0 0 1-2.352-1.57c-5.299-3.717-8.776-7.433-10.058-10.86l-.974-2.6 1.273-2.175c.012-.08.02-.173.023-.236-.002-4.026-.002-8.053-.003-12.079-.627-.119-1.254-.236-1.881-.35v-4.551l-.002-6.289V4.66a244.066 244.066 0 0 1 22.268-1.015 240.253 240.253 0 0 1 7.303.11 244.774 244.774 0 0 1 14.966.905l-.001 5.798M41.98.956a231.701 231.701 0 0 0-33.046 0c-2.981.213-5.96.485-8.934.814V24.03c.627.111 1.254.224 1.88.34l.001 8.793c-.545.932-1.09 1.861-1.635 2.789.505 1.334 1.01 2.672 1.515 4.015 1.532 4.07 5.309 8.174 11.228 12.326a69.568 69.568 0 0 0 2.474 1.651 1709.52 1709.52 0 0 1 6.277 4.025c1.24.798 2.479 1.597 3.717 2.396 1.239-.8 2.478-1.598 3.717-2.396 2.092-1.347 4.185-2.69 6.278-4.025a68.584 68.584 0 0 0 2.473-1.652c5.92-4.151 9.697-8.254 11.228-12.325.505-1.343 1.01-2.681 1.514-4.015-.544-.928-1.09-1.857-1.634-2.789V24.37c.628-.115 1.255-.228 1.881-.338V1.77c-2.974-.33-5.952-.6-8.934-.814" transform="translate(0 -.366)"/>
        <path fill="url(#b)" d="M22.51 9.584a271.219 271.219 0 0 0-11.691.378c-.627.033-1.255.07-1.883.107l.002 6.353c1.564.307 1.837 2.643 1.884 3.541l.003 13.671c-.001.303-.044 1.884-.685 2.98.685 1.853 3.016 4.742 7.95 8.213a58.13 58.13 0 0 0 2.133 1.429l-.001-8.808c-1.968-.282-2.06-3.521-2.063-3.97l-.002-13.403a.133.133 0 0 1 .01.006s-.05-3.525 1.893-4.05a308.47 308.47 0 0 1 10.793 0c1.944.525 1.895 4.05 1.895 4.05a.082.082 0 0 1 .01-.006l-.003 13.402c-.003.45-.095 3.69-2.062 3.97l-.002 8.809a57.82 57.82 0 0 0 2.133-1.429c4.934-3.47 7.265-6.36 7.95-8.213-.641-1.096-.684-2.677-.685-2.98 0-4.557.002-9.113.003-13.67.047-.899.32-3.235 1.884-3.542l.001-6.353a271.185 271.185 0 0 0-9.219-.403 272.816 272.816 0 0 0-7.302-.098h.001c-.982 0-1.964.006-2.946.016" transform="translate(0 -.366)"/>
        <g fill="url(#c)" transform="translate(63.311 23.836)">
            <path d="M33.138.319h5.26l3.205 19.77 3.19-19.77h5.26L45.778 24h-8.367zM63.975.319v4.555h-6.542v5h5.621v4.555h-5.621v5.016h6.542V24H52.156v-4.555h.017V.32zM93.694 4.874V24h-5.26V4.874H84.11V.319h13.906v4.555zM99.76 24h5.26V.319h-5.26zM121.917 9.33h-4.931V5.5c0-.417-.203-.627-.608-.627h-2.187c-.394 0-.592.21-.592.628v13.317c0 .419.198.627.592.627h2.187c.405 0 .608-.208.608-.627V14.99h4.93v4.984c0 1.375-.322 2.392-.969 3.053-.647.638-1.923.962-3.83.973h-3.978c-1.907-.01-3.183-.335-3.83-.973-.646-.66-.97-1.678-.97-3.053V4.345c0-1.375.324-2.393.97-3.053.647-.637 1.923-.962 3.83-.973h3.978c1.907.011 3.183.336 3.83.973.647.66.97 1.678.97 3.053V9.33zM9.961.319h4.931V24h-5.26L0 .319h5.26l4.701 13.697V.319zM0 10.141l4.971 11.74L4.931 24H0V10.14zM76.845.319h4.932V24h-5.26L66.884.319h5.26l4.701 13.697V.319zm-9.96 9.822l4.97 11.74-.04 2.119h-4.93V10.14zM30.245.319h-8.366L17.605 24h5.26L26.07 4.345 29.259 24h5.26z"/>
        </g>
        <path fill="#FFF" d="M67.291 13.72v4.986c0 .1.023.175.068.227a.496.496 0 0 0 .24.124v.155h-2.052v-.155a.494.494 0 0 0 .24-.124c.046-.052.068-.127.068-.227v-4.985h-2.043a.334.334 0 0 0-.221.066.49.49 0 0 0-.126.242h-.154v-1.7h.154a.529.529 0 0 0 .128.241c.05.045.123.067.22.067h5.516c.1 0 .175-.022.227-.067a.49.49 0 0 0 .125-.241h.154v1.7h-.154a.493.493 0 0 0-.125-.242c-.052-.044-.127-.066-.227-.066h-2.038zm15.206 2.607v1.8h4.231c.096 0 .17-.022.222-.067a.492.492 0 0 0 .125-.24h.154v1.7h-.154a.489.489 0 0 0-.125-.24c-.052-.046-.126-.068-.222-.068h-5.975v-.154a.5.5 0 0 0 .24-.126c.046-.051.068-.127.068-.226v-5.563c0-.1-.022-.175-.067-.227a.493.493 0 0 0-.241-.125v-.154h5.86c.096 0 .17-.023.22-.07a.498.498 0 0 0 .126-.238h.154v1.7h-.154a.503.503 0 0 0-.125-.24.327.327 0 0 0-.222-.068h-4.115v1.56h2.67c.096 0 .17-.023.221-.067a.49.49 0 0 0 .126-.241h.154v1.662h-.154a.507.507 0 0 0-.126-.239c-.051-.046-.125-.07-.221-.07h-2.67zm20.421.308l-1.066-2.342-1.084 2.342h2.15zm.413.9h-2.99l-.442.925a.775.775 0 0 0-.091.304c0 .14.107.24.322.294v.154h-2.175v-.154a.588.588 0 0 0 .294-.135c.067-.065.144-.19.23-.376l2.42-5.053c.077-.16.115-.289.115-.385 0-.148-.093-.254-.28-.318v-.154h2.332v.154c-.19.054-.284.15-.284.284 0 .093.03.199.092.318l2.505 5.067c.106.216.2.362.28.441.08.078.188.13.323.157v.154h-2.422v-.154c.213-.036.32-.135.32-.299a.767.767 0 0 0-.097-.299l-.452-.925zm17.522 1.677l-2.426-4.543v4.037c0 .1.022.175.068.226a.496.496 0 0 0 .24.126v.154h-1.932v-.154a.494.494 0 0 0 .241-.126c.045-.051.068-.126.068-.226v-5.568c0-.096-.023-.17-.068-.221a.487.487 0 0 0-.24-.126v-.154h2.534v.154c-.15.039-.226.127-.226.265a.48.48 0 0 0 .068.222l1.794 3.398 1.818-3.34c.08-.148.12-.256.12-.323 0-.132-.08-.206-.24-.222v-.154h2.487v.154a.487.487 0 0 0-.241.126c-.046.051-.068.125-.068.221v5.568c0 .1.022.175.068.226a.494.494 0 0 0 .24.126v.154h-2.052v-.154a.467.467 0 0 0 .239-.123c.046-.053.069-.13.069-.229V14.67l-2.56 4.543z"/>
    </g>
</svg>
