<svg xmlns="http://www.w3.org/2000/svg" width="37" height="30" viewBox="0 0 37 30">
    <path fill="#FFF" fill-rule="nonzero" d="M36.466 3.706A14.715 14.715 0 0 1 32.22 4.87 7.408 7.408 0 0 0 35.47.78a14.804 14.804 0 0 1-4.696 1.795A7.385 7.385 0 0 0 25.376.24a7.395 7.395 0 0 0-7.394 7.395c0 .579.065 1.143.191 1.685C12.027 9.01 6.577 6.067 2.93 1.592a7.358 7.358 0 0 0-1.001 3.719 7.391 7.391 0 0 0 3.29 6.155 7.374 7.374 0 0 1-3.35-.926l-.001.094c0 3.582 2.55 6.57 5.933 7.251a7.435 7.435 0 0 1-3.34.126 7.403 7.403 0 0 0 6.908 5.136 14.836 14.836 0 0 1-9.185 3.166 14.95 14.95 0 0 1-1.764-.104 20.927 20.927 0 0 0 11.336 3.323c13.604 0 21.041-11.269 21.041-21.041 0-.32-.006-.64-.02-.958a14.978 14.978 0 0 0 3.69-3.827z" opacity=".82"/>
</svg>
