<svg xmlns="http://www.w3.org/2000/svg" width="31" height="30" viewBox="0 0 31 30">
    <g fill="#FFF" fill-rule="nonzero" opacity=".82">
        <path d="M25.048 14.21H5.989a5.487 5.487 0 0 0-5.485 5.487v4.409a5.486 5.486 0 0 0 5.485 5.486h19.059a5.487 5.487 0 0 0 5.485-5.486v-4.409a5.487 5.487 0 0 0-5.485-5.487zM9.993 17.642H8.221v8.805H6.51v-8.805H4.74v-1.497h5.254v1.497zm5.005 8.805H13.48v-.833a3.249 3.249 0 0 1-.877.702 1.83 1.83 0 0 1-.882.242c-.353 0-.615-.112-.794-.34-.177-.227-.267-.564-.267-1.019v-6.353h1.519v5.83c0 .18.033.31.094.39.066.083.17.12.312.12.11 0 .253-.052.423-.159a2.05 2.05 0 0 0 .472-.409v-5.772h1.518v7.6zm5.513-1.57c0 .537-.12.95-.358 1.238-.237.287-.583.429-1.032.429a1.81 1.81 0 0 1-.795-.165c-.232-.11-.45-.28-.65-.515v.582H16.14V16.145h1.537v3.318a2.37 2.37 0 0 1 .65-.527 1.49 1.49 0 0 1 .702-.181c.48 0 .847.16 1.1.484.255.324.382.799.382 1.42v4.218zm5.267-2.048h-2.906v1.432c0 .4.05.678.148.832.102.156.273.232.516.232.252 0 .427-.066.528-.197.098-.132.15-.42.15-.867v-.345h1.564v.39c0 .778-.19 1.365-.573 1.762-.378.392-.947.587-1.704.587-.681 0-1.218-.208-1.608-.625-.39-.416-.587-.992-.587-1.724v-3.414c0-.657.216-1.197.647-1.612.429-.414.982-.621 1.662-.621.696 0 1.23.191 1.603.576.373.385.56.936.56 1.657v1.937z"/>
        <path d="M23.55 19.987c-.242 0-.414.068-.52.21-.108.134-.158.362-.158.681v.769h1.343v-.769c0-.319-.054-.548-.16-.68-.103-.142-.274-.21-.504-.21zM18.312 19.962a.748.748 0 0 0-.322.073c-.106.048-.21.129-.313.233v4.734c.122.123.242.217.36.27a.893.893 0 0 0 .367.082c.187 0 .323-.054.41-.163.087-.107.13-.28.13-.522v-3.926c0-.258-.05-.451-.158-.584-.112-.131-.27-.197-.474-.197zM8.484 11.57h1.925V6.862L12.651.22h-1.957L9.503 4.757H9.38L8.131.22H6.19l2.293 6.854zM15.259 11.781c.778 0 1.387-.203 1.832-.611.441-.41.662-.969.662-1.685V5.16c0-.637-.226-1.162-.676-1.567-.453-.403-1.033-.606-1.74-.606-.778 0-1.397.192-1.858.576-.459.384-.69.898-.69 1.55v4.339c0 .712.225 1.275.674 1.698.448.42 1.048.631 1.796.631zM14.55 5.05a.57.57 0 0 1 .193-.444.758.758 0 0 1 .511-.167c.226 0 .41.054.549.167a.549.549 0 0 1 .208.444V9.61c0 .224-.068.401-.206.53-.136.128-.32.191-.55.191-.227 0-.401-.061-.524-.19-.12-.125-.182-.302-.182-.531V5.049h.001zM20.335 11.693c.322 0 .652-.092.991-.269.344-.178.673-.44.985-.78v.927h1.71V3.198h-1.71v6.355c-.159.182-.336.332-.525.45-.194.118-.353.177-.479.177-.16 0-.278-.044-.347-.136-.07-.087-.11-.23-.11-.427V3.198h-1.708v6.998c0 .499.1.872.299 1.119.202.25.497.378.894.378z"/>
    </g>
</svg>
