<svg xmlns="http://www.w3.org/2000/svg" width="512" height="180" viewBox="0 0 512 180">
    <g fill="#FFF" fill-rule="nonzero">
        <path d="M80.344 62.769s4.538.35 8.379 5.237l-2.095.349-1.047-.35s-3.142-3.84-5.237-5.236zm-6.982 21.645l-2.095-5.237h-.698l-3.491 4.19c2.443 2.094 6.284 1.047 6.284 1.047zm32.118-30.722l-1.745.698 2.094 3.84 6.983 2.444c-2.793-5.935-7.332-6.982-7.332-6.982zm-19.9 7.331c2.095 2.444 4.19 5.935 4.19 5.935 3.491-3.49 10.823-4.887 20.249-4.538-13.267-2.793-24.438-1.397-24.438-1.397zm-12.917-5.236s3.84 0 9.077 1.047c-3.49-2.444-9.077-3.84-9.077-3.84v2.793zm32.119 19.201l-5.935 5.237 4.539 1.396 4.538-4.887-2.444-1.048-.698-.698zm-39.45-27.58s2.444 1.396 2.793 1.396c.349 0 5.237 1.746 7.331 2.444 1.746.698 2.793 0 3.142 0 .35 0 6.284-3.491 6.284-3.491a118.25 118.25 0 0 0-10.124-3.491c-.349 0-9.426 3.142-9.426 3.142zm35.61 3.142c-.35-.698-1.048-.698-5.237-1.397-3.84-.349-7.331-.698-8.03-.698-.698 0-1.047.35-1.047.35s-2.095 1.396-3.84 2.443c-1.746 1.048-2.095 1.397-2.444 2.095-.35.349.698 1.745.698 1.745l2.793 3.492c.35 0 1.397.698 1.397.698s5.585-.35 9.077-.698h9.077c.349 0 0-1.397-.699-3.142-.698-1.397-1.745-4.888-1.745-4.888zm-33.166 3.84s.349 0 1.047.35c.698 0 1.047-.699 1.047-1.397 0-1.047-1.047-1.397-1.047-1.397h-.698l-1.047.35-.35 2.443h.35l.698-.349c-.35-.698-.35-1.047-.35-1.745 0-.35.699-1.048 1.048-1.048 0 0 .698 0 .35 1.397 0 1.396-1.048 1.396-1.048 1.396zm59 27.58l-2.793 3.84v.35h3.84c.699-2.444-1.047-4.19-1.047-4.19zM56.953 63.816h-.698l-1.746-.349c-1.745-.349-1.047-3.49-1.047-3.49l-2.095.697c-.698-1.396-3.84-5.236-3.84-5.236l-.698 2.792c.349.35 2.095 3.143 2.444 3.84l-1.048 1.048s-.349.698-.349 1.047c0 .35-.349.699-.349.699l-1.396.698h-.35l-4.887-3.84v2.793h.349c.35.698 1.047 2.094 2.793 2.792 1.396.699 3.142.699 3.84.35.698.349 1.048.349 1.397.698 1.396.698 1.745.349 1.745.349l2.095-.698h.349l.35-.35.697-1.396s3.492.35 4.888.35c1.396-2.095 5.935-5.237 9.077-5.587 3.142 0 8.379.699 12.568 4.888 3.84 4.19 2.793 9.775 2.793 9.775l7.68 2.444-3.49-2.444c-2.793-6.982-9.427-13.266-9.427-13.266s-1.745-.35-2.793-.35a4.92 4.92 0 0 1-1.745-1.047s-.35-.349-1.047-1.396l-.699-1.397s-.698-.698-1.745-1.396c-1.048-.698-4.888-1.047-6.983-1.396-2.094-.35-2.094 0-2.094 0 5.935 1.396 7.68 1.745 8.03 2.094 0 0 .348.698.698 1.048-4.888-1.048-9.427-.35-10.474 0a3.171 3.171 0 0 1 0 3.49c-.698.699-2.793 1.746-2.793 1.746zm66.332 25.137l1.048 4.538s1.047-1.047 2.094-2.444c1.048-1.396 1.397-2.793 1.397-2.793l-4.19.35-.349.349zm-84.137-31.77l-.349 3.84h2.095l.349-2.443v1.396h.35v-2.095h-.35v-1.396l3.142 1.745.35.699.697.698h.699l.349-.35v-.348c-2.095 0-2.095-1.048-2.095-1.048s.35-2.443.698-3.142c.35-.698 1.746-.349 1.746-.349l-.35-.349h-.698c-.698-.349-2.792-1.745-3.49-2.095v-.349l.348-.349v-1.396h.35c0-.35.349-.35.349-.699.698 0 5.935-1.047 5.935-1.047l-4.888-1.047v-.35c-1.396-.348-2.444-.698-3.142-1.047-1.746 2.095-2.444 4.888-2.444 4.888s-.349 4.888-.349 5.586c-.349.698.698 1.047.698 1.047zm82.042 27.58l.699 1.048.349-.35 2.793-3.49v-.35c-1.397 0-3.84 3.142-3.84 3.142zm-8.378-6.284l-2.095-.698-4.888 5.586 3.492 1.047c.698-2.793 3.49-5.935 3.49-5.935zm7.331 8.03c-1.745 3.491-1.396 5.935-1.396 5.935l1.745-3.84v-.699c.35 0 0-.698-.349-1.396zm-1.745-22.693s-.699 1.397-1.048 1.746c-.349.349-2.793.698-4.19 1.047-1.396.698-3.84 1.746-4.538 2.444-.349.35-.349 1.397-.349 1.746 0 0 .698.349 1.048.349l-3.142 2.793.698.698 7.68 2.444c1.746-1.397 4.19-1.746 4.19-1.746-1.397-.698-7.332-3.142-9.077-3.84 0 0-1.048-.35-1.048-.698V69.75s4.539-3.49 11.521-3.49l1.047-2.096-2.792-.349zm4.538 30.723l-1.396-4.19h-.35l-2.094 3.84.349.35c1.745.698 3.491 0 3.491 0zm-52.716-39.8l1.047.35s.698 0 .698-.699v-1.396l-1.047-.698-1.397-.35c.35.35.35.699.35.699h.349c0-.35.349-.35.349 0 0 0 .698.349.349 1.396.349.35-.35.698-.698.698zm-3.142 19.202c-2.444 4.538-.699 7.68-.699 7.68l3.142-4.538v-.699l-2.443-2.443zM44.385 47.059l4.19 1.047c.349 0 2.792-.349 2.792-.349l-6.633-1.746-.349 1.048zm2.444-1.048c5.586.699 6.633 1.746 6.633 1.746s2.095-.35 3.142-.35c-1.745-1.396-9.426-3.84-9.426-3.84s-.35 1.048-.35 2.444zm8.379 10.823c-1.048.698-2.095 2.793-1.746 4.539.35 1.745.698 1.745 1.746 1.745-1.746-.698-1.397-3.491 0-5.237 1.047-1.396 2.094-.349 2.094-.349s-1.047-1.396-2.094-.698zm-24.788 51.67c-4.538 0-9.775 1.745-6.633 6.632 25.835 44.338 53.066 54.811 64.587 60.397 5.236-2.443 13.615-6.284 23.74-13.266 5.934-3.84 5.236-9.775 3.84-13.616-7.332-18.154-47.48-38.751-85.534-40.148zm145.582-82.741C165.528 18.43 139.694 5.165 88.374 5.165c-17.805 0-32.817 1.745-44.687 4.19 2.793 4.538 4.19 9.775 4.19 15.36 0 7.68-2.794 14.663-7.332 19.9 1.047.35 2.444.698 4.19 1.047l.697-1.745s.699 0 1.048.349c0-1.746 1.047-1.746 1.047-1.746s0-.349.35-.349c1.745.35 6.632 2.793 8.727 3.84C58.7 47.06 58.7 47.408 58.7 47.408s4.887 0 6.284-.35c1.396 0 3.84-1.047 7.331-2.094 3.491-1.047 4.19-1.396 4.888-1.396.698 0 6.982.349 12.568 1.047 5.586.698 10.823 2.793 11.87 3.491l1.746.35.349-1.048-2.793-1.047s.349-1.746.349-2.095c0-.35.349-.698.698-.698.35 0 3.491.698 4.539 1.047 1.047.35 4.538 2.793 4.887 2.793.35 0 .35.349.35.349 0 .698-.699 2.095-.699 2.095l-1.047-.35 1.047.35s1.047.349 1.397.698c.349.349 1.396 1.047 2.443 2.095 1.048.698.699 1.745.699 1.745l2.443 2.444v1.047l5.935 5.935v.35l-2.793 1.745s3.84-.35 6.634 1.047c2.793 1.397 3.142 2.095 3.142 2.793-.699.35-1.746.699-1.746.699-2.095.698-7.331 4.189-7.331 4.189v.349l2.793.698c3.142-2.793 8.728-3.84 12.917-3.142 14.314 2.793 24.089 12.22 26.184 20.249 0 .349.349 1.047.349 1.396 14.313-33.515 12.917-57.604 11.87-68.426zm-50.273 50.97c.35.35.698.35 1.047.699 2.095 1.396 3.142 2.095 3.491 5.237.35 2.443-.349 5.935-2.094 9.077 9.775 6.633 23.39 1.396 28.627 6.633-1.047-13.267-20.598-26.533-31.071-21.645zM45.432 59.628l-.698.35v2.792l.698-.35v-2.792zm100.895 43.29c-7.332 0-14.663-2.444-19.9-8.728v.35c-3.142 4.189-6.633 4.189-8.03 4.189-1.396 0-5.934-2.095-7.68-4.19-1.746-2.094-1.746-5.934-1.746-5.934l-6.982-2.444-8.728-4.888-1.396-.349c-2.793 1.396-6.284.35-9.426-2.095-.35 1.397-2.095 4.888-4.19 6.633-2.094 1.746-6.284 4.19-9.426 4.19-3.142 0-10.124-3.491-12.219-8.379-2.095-4.888 0-10.124 0-10.124l-3.491-.698-1.397-1.746s-4.189 3.491-8.727 2.095c-4.539-1.397-8.38-5.237-9.427-8.728-.698-3.491.35-6.633.699-6.983-.699-2.443-.699-3.84-.699-3.84h-.349v-1.047c-4.538 3.142-9.775 4.538-15.36 4.538-6.285 0-12.22-2.094-17.107-5.236.698 7.68 2.793 16.757 5.585 26.881C10.171 90.35 22.74 94.888 41.592 98.03c41.545 6.633 81.344 38.402 78.551 57.953 10.474-8.728 21.645-21.645 32.817-40.847 4.539-7.331.35-12.219-6.633-12.219zM35.308 54.74l-.35 3.84h2.445v-.349h-.35v-.349h-.349l.35-.698.349-1.745-.35-.35v-.698l.35-.349.349-4.19-1.746-1.047c.698-2.793 2.444-5.236 2.444-5.236h-1.047c-1.746 2.094-2.444 4.887-2.444 4.887s-.35 4.539-.35 5.237c0 1.047.699 1.047.699 1.047zM73.711 78.13l1.745 5.586c3.491-2.444 4.19-6.284 4.19-6.284l-5.586.349-.35.35zm3.142-8.728L74.06 74.29l.349.349 5.586.349c0-3.84-3.142-5.586-3.142-5.586zM41.94 58.58l-.349 2.094h.35V58.58zm26.533 13.266l2.793 2.095.698-.35 3.142-4.887c-3.84-.35-6.633 3.142-6.633 3.142zM42.639 58.929l-.349-.35v2.444h.35V58.93zm1.048.698l-.35 2.444h.35v-2.444zm.698.35l-.35 2.443h.35v-2.444zm-1.396-.7l-.35 2.445h.35v-2.444zM382.329 86.509h-20.598V24.715h20.598v20.598l12.568-20.598h23.042L397.34 55.787l20.598 31.071h-23.042L382.33 66.26V86.51zM500.33 40.775h11.52v-16.06h-43.639v16.06h11.521v45.734h20.598V40.775zM463.673 70.45H440.63v-6.983h18.154v-15.71h-18.154v-6.982h23.042v-16.06h-43.64V86.51h43.64v-16.06zM235.35 137.13H212.31V91.048h-20.598v61.794h43.64v-15.71zm48.178 0h-23.041v-6.982h18.154V114.09h-18.154v-6.982h23.041v-16.06h-43.64v61.794h43.64v-15.71zm228.322 0h-23.042v-6.982h18.154V114.09H488.81v-6.982h23.042v-16.06h-43.64v61.794h43.64v-15.71zM311.109 55.788a32.034 32.034 0 0 1-32.118 32.118 32.034 32.034 0 0 1-32.119-32.118 32.034 32.034 0 0 1 32.119-32.119 32.034 32.034 0 0 1 32.118 32.119zm-20.597 0c0-6.284-5.237-11.521-11.521-11.521-6.284 0-11.521 5.237-11.521 11.52 0 6.285 5.237 11.521 11.52 11.521 6.285 0 11.522-5.236 11.522-11.52zm152.563 70.87c0 3.84-3.142 6.982-6.982 6.982-3.84 0-6.983-3.142-6.983-6.982v-35.61h-20.597v35.61c0 15.012 12.219 27.58 27.58 27.58 15.012 0 27.58-12.219 27.58-27.58v-35.61h-20.598v35.61zM357.193 62.42c-2.095 2.793-7.68 4.538-11.521 4.538-6.284 0-11.521-5.236-11.521-11.52 0-6.285 5.237-11.521 11.52-11.521 3.841 0 9.427 1.745 11.522 4.538v-23.74c-2.793-.698-8.38-1.396-11.521-1.396a32.034 32.034 0 0 0-32.119 32.119 32.034 32.034 0 0 0 32.119 32.118c3.142 0 8.379-.349 11.52-1.396V62.42zM244.428 44.266c0 8.728-4.538 16.408-12.219 17.805l15.71 24.438h-23.041L212.31 65.91v20.598h-20.598V24.715h32.118c11.521 0 20.598 8.03 20.598 19.55zm-20.598 3.491c0-3.84-3.142-6.982-6.982-6.982h-4.538V54.39h4.538c3.84 0 6.982-2.793 6.982-6.633zm100.895 96.007h-16.06l-2.094 9.077h-20.598l20.598-61.794h20.598l20.598 61.794h-20.598l-2.444-9.077zm-3.84-16.06l-4.19-17.455-4.19 17.455h8.38zm83.787-11.171h-29.674v15.012h9.426c-1.048 2.094-3.142 5.586-9.426 5.586-6.983 0-12.569-5.935-12.569-13.616 0-8.379 6.284-13.266 12.569-13.615 6.982-.35 9.775 2.443 11.87 4.538l14.313-13.615c-6.982-6.983-15.012-10.474-26.183-10.474a32.034 32.034 0 0 0-32.12 32.119 32.034 32.034 0 0 0 32.12 32.118c18.503 0 29.674-13.266 29.674-29.674v-8.38z"/>
    </g>
</svg>
