<svg xmlns="http://www.w3.org/2000/svg" width="140" height="166" viewBox="0 0 140 166">
    <defs>
        <linearGradient id="a" x1="0%" y1="100%" y2="0%">
            <stop offset="0%" stop-color="#DADCE0"/>
            <stop offset="100%" stop-color="#FFF"/>
        </linearGradient>
        <linearGradient id="b" x1="100%" x2="0%" y1="0%" y2="100%">
            <stop offset="0%" stop-color="#DADCE0"/>
            <stop offset="100%" stop-color="#FFF"/>
        </linearGradient>
    </defs>
    <g fill="none" fill-rule="evenodd">
        <path fill="url(#a)" d="M131.01 28.644c-.002 5.741-.002 11.482-.003 17.224 0 4.155 0 8.311-.002 12.466-1.72.314-3.443.634-5.165.96l-.006 33.065c.006.192.03.45.061.668 1.165 1.988 2.331 3.973 3.496 5.956-.89 2.37-1.782 4.744-2.674 7.123-3.52 9.385-13.066 19.565-27.61 29.744a179.48 179.48 0 0 1-6.455 4.3 4991.37 4991.37 0 0 0-21.34 13.664l-1.43.92-1.43-.92a5119.87 5119.87 0 0 0-21.339-13.665 178.651 178.651 0 0 1-6.456-4.299c-14.545-10.18-24.09-20.359-27.61-29.745-.892-2.378-1.783-4.752-2.674-7.122 1.165-1.983 2.331-3.969 3.496-5.957.032-.219.056-.474.061-.648-.003-11.028-.004-22.057-.006-33.085a880.281 880.281 0 0 0-5.165-.959c0-4.155 0-8.31-.002-12.466l-.002-17.224-.002-15.88a671.432 671.432 0 0 1 20.944-1.58 673.398 673.398 0 0 1 101.314 1.58c0 5.293 0 10.587-.002 15.88M115.24 2.617a637.424 637.424 0 0 0-53.447-1.566A635.926 635.926 0 0 0 0 4.845v60.976c1.72.304 3.441.614 5.162.93l.002 24.086a4412.847 4412.847 0 0 1-4.488 7.638c1.386 3.654 2.772 7.32 4.158 10.998 4.205 11.15 14.573 22.388 30.822 33.761a191.004 191.004 0 0 0 6.79 4.523 4694.088 4694.088 0 0 1 17.232 11.025c3.402 2.185 6.804 4.373 10.204 6.561 3.401-2.188 6.802-4.376 10.203-6.56 5.744-3.69 11.488-7.37 17.233-11.026a188.302 188.302 0 0 0 6.79-4.524c16.25-11.372 26.618-22.61 30.822-33.76 1.386-3.678 2.771-7.344 4.157-10.998a5164.12 5164.12 0 0 1-4.487-7.638l.002-24.087c1.721-.315 3.442-.625 5.162-.928V4.845a636.23 636.23 0 0 0-24.526-2.228"/>
        <path fill="url(#b)" d="M61.794 26.197a747.71 747.71 0 0 0-32.093 1.032c-1.724.092-3.447.19-5.17.294l.005 17.365c4.292.839 5.043 7.223 5.172 9.678l.009 37.368c-.005.827-.123 5.149-1.881 8.143 1.88 5.065 8.278 12.963 21.824 22.451a159.624 159.624 0 0 0 5.855 3.905l-.004-24.076c-5.403-.769-5.654-9.624-5.662-10.852l-.006-36.633.026.016s-.138-9.634 5.199-11.068a850.425 850.425 0 0 1 29.627 0c5.337 1.434 5.201 11.067 5.201 11.068l.026-.016-.007 36.633c-.008 1.227-.26 10.083-5.661 10.852l-.005 24.076a158.772 158.772 0 0 0 5.855-3.905c13.545-9.488 19.944-17.386 21.824-22.451-1.759-2.994-1.876-7.316-1.88-8.143l.009-37.368c.128-2.454.879-8.839 5.172-9.678l.003-17.365a747.619 747.619 0 0 0-25.306-1.102 752.128 752.128 0 0 0-20.044-.267c-2.696 0-5.392.014-8.088.043"/>
    </g>
</svg>
