<svg xmlns="http://www.w3.org/2000/svg" width="1171" height="180" viewBox="0 0 1171 180">
    <path fill="#FFF" fill-rule="nonzero" d="M1.02 14.536h46.605V79.48l6.877 6.112h121.48V33.637c43.375-.397 52.72 23.93 52.72 61.123v70.29l-51.955.765c-1.528-4.584-.764-12.5-.764-18.337v-42.022H63.67v59.595c-19.345.275-41.334.764-61.887.764-3.102-9.42-.764-35.375-.764-47.37V14.536zm414.105 0h12.989c8.068 12.805 30.561 33.618 30.561 33.618l71.055 80.223L558 159.703s4.156 2.826 5.348 6.112h-57.303v-.764c-4.737-1.834-8.526-8.336-11.46-12.225l-7.64-6.876c-6.25-8.267-20.63-22.921-20.63-22.921s-12.056-16.549-16.044-18.337h-45.078c-3.866 2.239-19.101 3.056-19.101 3.056s-7.159 8.557-9.932 12.225l-9.169 8.404c-6.25 8.267-20.629 22.921-20.629 22.921s-8.939 12.614-11.46 13.753h-51.954c-.902.611-1.284.588-3.057.764v-1.528c7.121-4.806 23.685-26.741 23.685-26.741l32.09-34.382s11.155-15.181 13.752-16.809h84.808v-.764c-9.061-6.502-22.157-29.575-31.325-32.853l-9.933 9.932H372.34v-1.528c7.809-5.195 20.63-22.92 20.63-22.92s16.212-14.724 22.156-23.686zm198.649 0h22.157c7.151 11.889 19.1 20.935 27.505 32.09l4.584 3.82v77.167c3.943 4.707 11.46 12.225 11.46 12.225s18.72 2.292 29.034 2.292h53.482c7.343 0 31.394-2.01 35.91.764 2.116.665 19.146 13.095 19.865 14.516v7.64c-4.37 1.437-11.942.765-17.573.765H632.11v-.764c-3.538-1.658-5.349-5.394-7.64-8.405l-11.461-11.46V99.344c2.758-4.431.764-17.496.764-23.685V14.536zm556.98 71.82v14.516c-5.853-.107-24.793-1.46-28.27.764-6.608 2.36-8.71 11.568-12.224 16.809-5.86 8.733-14.379 16.044-22.753 22.332-13.798 10.307-29.53 17.413-46.017 22.219-37.17 10.826-76.962 11.109-115.37 11.223-12.53-17.863-42.785-4.202-58.066-16.045-2.391-2.674-1.666-10.26-1.528-15.28l.764-.764c48.065 9.734 103.053 12.5 149.903-4.355 15.28-5.509 35.765-14.83 45.842-28.27 14.838-19.696.65-39.034-16.71-50.754-34.48-23.288-79.596-26.222-119.952-23.876-34.626 2.017-100.219 8.748-117.906 44.574-4.172-2.354-12.828-7.58-14.517-12.225h.765c9.932-29.553 49.264-31.142 71.819-42.786l9.168-9.932 10.696-1.528c9.169-2.254 21.393-2.338 31.326-4.585h9.932c34.114-7.304 76.977 2.056 109.555 11.507 19.513 5.661 37.728 13.47 54.017 25.794 7.549 5.707 14.356 11.941 19.307 20.025 3.003 4.897 5.188 15.762 11.186 18.337 4.798 4.27 20.453 2.422 29.033 2.3zm-218.514-7.64c18.123-.536 38.072 1.23 38.202 18.336-3.209 3.415-5.394 7.877-9.932 9.932-10.246 4.646-29.53 5.349-39.73 0-3.98-2.093-6.189-6.036-9.168-9.168V90.94l6.112-6.877c4.11-2.788 10.299-2.475 14.516-5.348z"/>
</svg>
