<?xml version="1.0" encoding="UTF-8"?>
<svg width="138px" height="30px" viewBox="0 0 138 30" version="1.1" xmlns="http://www.w3.org/2000/svg" xmlns:xlink="http://www.w3.org/1999/xlink">
    <!-- Generator: Sketch 47 (45396) - http://www.bohemiancoding.com/sketch -->
    <title>sponsor/astro</title>
    <desc>Created with Sketch.</desc>
    <defs></defs>
    <g id="Symbols" stroke="none" stroke-width="1" fill="none" fill-rule="evenodd" opacity="0.6">
        <g id="layout/sponsor_bar" transform="translate(-414.000000, -60.000000)" fill="#E9EBF0">
            <g id="sponsor-bar">
                <g id="60:60" transform="translate(60.000000, 60.000000)">
                    <g id="sponsor/astro" transform="translate(354.000000, 0.000000)">
                        <g id="astro">
                            <g>
                                <polyline id="Fill-1" points="32.2730371 8.29355769 28.8780923 10.4578125 29.9020909 6.56884615 26.791735 4.02814904 30.809272 3.79658654 32.2730371 0.0536538462 33.7282615 3.79658654 37.7382713 4.02814904 34.6353703 6.56884615 35.6556052 10.4578125 32.2730371 8.29355769"></polyline>
                                <path d="M44.096935,17.1835096 C44.096935,17.1797596 40.469658,21.140625 40.469658,21.140625 C38.2104629,23.6244231 35.2317619,24.9938221 32.076749,24.9938221 L30.5408234,24.9938221 L30.5408234,29.9154808 L32.076749,29.9154808 C36.6447178,29.9154808 40.9231762,27.9752885 44.1292878,24.4514423 C44.1205301,24.4576442 47.7478794,20.499375 47.7478794,20.499375 C50.0070021,18.011899 52.9918552,16.6412019 56.1432493,16.6412019 L57.681708,16.6412019 L57.681708,11.7232212 L56.1432493,11.7232212 C51.5765832,11.7232212 47.2942888,13.6572837 44.096935,17.1835096" id="Fill-2"></path>
                                <path d="M12.1097171,23.7878365 C11.3181231,24.5752644 10.2630745,25.009976 9.13977378,25.009976 C9.13977378,25.009976 7.15517937,25.009976 4.94701049,25.009976 C4.94701049,23.0659615 4.94701049,20.8274279 4.94701049,20.8274279 C4.94701049,18.5206731 6.83085524,16.6412019 9.13977378,16.6412019 C9.13977378,16.6412019 14.3042066,16.6412019 19.2910248,16.6412019 C16.6516301,19.2747837 12.1097171,23.7878365 12.1097171,23.7878365 Z M9.13977378,11.7232212 C4.10200175,11.7232212 0,15.8054567 0,20.8274279 L0,29.9278846 L9.13977378,29.9278846 C11.5878021,29.9278846 13.8855021,28.9893029 15.6102608,27.2745433 C15.6102608,27.2745433 20.080158,22.8170913 22.7369234,20.1749279 C22.7369234,23.7878365 22.7369234,29.9278846 22.7369234,29.9278846 L27.6814731,29.9278846 L27.6814731,11.7232212 L9.13977378,11.7232212 L9.13977378,11.7232212 Z" id="Fill-4"></path>
                                <path d="M65.3998406,11.7232212 L65.3998406,6.83747596 L60.4541329,6.83747596 L60.4541329,20.8274279 C60.4541329,25.8455769 64.5572927,29.9278846 69.5962951,29.9278846 L83.3703357,29.9278846 L83.3703357,25.009976 L69.5962951,25.009976 C67.2837577,25.009976 65.3998406,23.1415385 65.3998406,20.8274279 L65.3998406,16.6412019 L83.3703357,16.6412019 L83.3703357,11.7232212 L65.3998406,11.7232212" id="Fill-5"></path>
                                <path d="M95.5058916,11.7232212 C90.4640664,11.7232212 86.3631503,15.8054567 86.3631503,20.8274279 L86.3631503,29.9278846 L91.3094371,29.9278846 L91.3094371,20.8274279 C91.3094371,18.5206731 93.1869126,16.6412019 95.5058916,16.6412019 L108.625783,16.6412019 L108.625783,11.7232212 L95.5058916,11.7232212" id="Fill-6"></path>
                                <path d="M132.570472,20.8274279 C132.570472,23.1415385 130.689378,25.009976 128.374017,25.009976 L119.365899,25.009976 C117.044748,25.009976 115.16293,23.1415385 115.16293,20.8274279 C115.16293,18.5206731 117.044748,16.6412019 119.365899,16.6412019 C119.365899,16.6412019 128.996465,16.6412019 132.570472,16.6412019 C132.570472,18.595024 132.570472,20.8274279 132.570472,20.8274279 Z M119.365899,11.7232212 C114.325521,11.7232212 110.223881,15.8054567 110.223881,20.8274279 C110.223881,25.8455769 114.325521,29.9278846 119.365899,29.9278846 L128.374017,29.9278846 C133.412948,29.9278846 137.517483,25.8455769 137.517483,20.8274279 L137.517483,11.7232212 L119.365899,11.7232212 L119.365899,11.7232212 Z" id="Fill-7"></path>
                            </g>
                        </g>
                    </g>
                </g>
            </g>
        </g>
    </g>
</svg>