<?xml version="1.0" encoding="UTF-8"?>
<svg width="116px" height="28px" viewBox="0 0 116 28" version="1.1" xmlns="http://www.w3.org/2000/svg" xmlns:xlink="http://www.w3.org/1999/xlink">
    <!-- Generator: Sketch 47 (45396) - http://www.bohemiancoding.com/sketch -->
    <title>sponsor/rift</title>
    <desc>Created with Sketch.</desc>
    <defs></defs>
    <g id="Symbols" stroke="none" stroke-width="1" fill="none" fill-rule="evenodd" opacity="0.6">
        <g id="layout/sponsor_bar" transform="translate(-60.000000, -61.000000)" fill="#E9EBF0">
            <g id="sponsor-bar">
                <g id="60:60" transform="translate(60.000000, 60.000000)">
                    <g id="sponsor/rift">
                        <g transform="translate(0.000000, 1.500000)" id="Shape">
                            <path d="M39.7432842,3.55092646 L40.025945,1.94918185 C40.2233093,0.822192376 41.2019785,1.08896205e-05 42.3461192,0 L44.3954101,0 C45.091197,6.62230047e-06 45.7513836,0.307628177 46.1989349,0.840373273 C46.6464862,1.37311837 46.8356075,2.07647489 46.7155842,2.76183169 L46.4329234,4.36357629 C46.2355591,5.49056577 45.2568899,6.31274726 44.1127492,6.31275815 L42.0634584,6.31275815 C41.3676714,6.31275152 40.7074849,6.00512997 40.2599335,5.47238487 C39.8123822,4.93963978 39.6232609,4.23628325 39.7432842,3.55092646 L39.7432842,3.55092646 Z M36.1040262,24.1851658 L38.1945385,12.3428555 C38.2955952,11.7739013 38.7945012,11.3623039 39.3722919,11.3712089 L43.8124221,11.3712089 C44.1640075,11.3657753 44.4996311,11.5177197 44.7275273,11.7854978 C44.9554235,12.0532759 45.0517523,12.4088755 44.9901755,12.7550692 L42.7642216,25.0037044 C42.5668574,26.1306939 41.5881881,26.9528753 40.4440475,26.9528862 L38.4242004,26.9528862 C37.7271861,26.953187 37.0658293,26.6447755 36.6180485,26.1106208 C36.1702677,25.576466 35.9820487,24.8714241 36.1040262,24.1851658 Z M26.3051181,25.1509235 L24.9094803,19.4093758 C24.6514606,18.3540588 23.7051507,17.6120935 22.61875,17.6133019 L9.99912243,17.6133019 C8.85498174,17.6133128 7.87631253,18.4354943 7.67894826,19.5624837 L6.71907925,25.0037044 C6.52171498,26.1306939 5.54304578,26.9528753 4.39890509,26.9528862 L2.35550296,26.9528862 C1.65971598,26.9528796 0.999529462,26.6452581 0.551978145,26.112513 C0.104426828,25.5797679 -0.084694462,24.8764113 0.0353287916,24.1910545 L2.13172982,12.3428555 C2.23278657,11.7739013 2.73169254,11.3623039 3.3094832,11.3712089 L26.5288912,11.3712089 C29.6028275,11.3712089 29.7441579,6.31864691 26.5877789,6.31864691 L5.97709462,6.31864691 C5.28130764,6.31864029 4.62112112,6.01101874 4.17356981,5.47827364 C3.72601849,4.94552855 3.5368972,4.24217202 3.65692045,3.55681522 L3.93958126,1.95507062 C4.13655889,0.830267797 5.11195014,0.0087550657 6.25386667,0.00588876693 L31.4931217,0.00588876693 C33.2597518,0.00588876693 34.620057,0.51821149 35.4621506,1.52519063 C36.3042443,2.53216978 36.639904,4.05147165 36.2806892,5.94176583 L35.2324887,11.9836407 C35.0070942,13.7652533 34.0730165,15.380783 32.6414313,16.4649923 C31.8660156,17.0289305 31.5173505,18.0117447 31.764005,18.9382744 L33.0242011,24.0556129 C33.2065162,24.7617115 33.0515003,25.5124366 32.604419,26.0885723 C32.1573378,26.6647079 31.4686142,27.0012759 30.7393596,26.9999964 L28.5958484,26.9999964 C27.4937137,26.99546 26.5420697,26.2272949 26.3051181,25.1509235 L26.3051181,25.1509235 Z M45.8263804,24.1851658 L47.9168927,12.3428555 C48.0179494,11.7739013 48.5168554,11.3623039 49.0946461,11.3712089 L74.0217965,11.3712089 C74.7188107,11.3709081 75.3801676,11.6793196 75.8279484,12.2134744 C76.2757292,12.7476292 76.4639482,13.4526711 76.3419706,14.1389294 L76.0710874,15.6700088 C75.8711892,16.7946574 74.8931887,17.6137948 73.7509132,17.6133019 L55.7842853,17.6133019 C54.6401446,17.6133128 53.6614754,18.4354943 53.4641111,19.5624837 L52.5101309,25.0037044 C52.3127666,26.1306939 51.3340974,26.9528753 50.1899567,26.9528862 L48.1465546,26.9528862 C47.4495403,26.953187 46.7881835,26.6447755 46.3404027,26.1106208 C45.8926219,25.576466 45.7044029,24.8714241 45.8263804,24.1851658 L45.8263804,24.1851658 Z M113.600199,0.00588876693 L52.0684734,0.00588876693 C50.9243327,0.00589965655 49.9456635,0.828081143 49.7482992,1.95507062 L49.2418652,4.93478669 C49.1802885,5.28098039 49.2766172,5.63658 49.5045134,5.90435806 C49.7324097,6.17213613 50.0680333,6.32408054 50.4196186,6.31864691 L113.317538,6.31864691 C114.459814,6.31913986 115.437814,5.50000239 115.637712,4.37535383 L115.920373,2.77360922 C116.042351,2.08735094 115.854132,1.38230899 115.406351,0.84815422 C114.95857,0.313999453 114.297213,0.00558794727 113.600199,0.00588876693 Z M92.4713033,24.1851658 L94.5853706,12.3428555 C94.6864273,11.7739013 95.1853333,11.3623039 95.763124,11.3712089 L100.203254,11.3712089 C100.55484,11.3657753 100.890463,11.5177197 101.118359,11.7854978 C101.346256,12.0532759 101.442584,12.4088755 101.381008,12.7550692 L99.1550537,25.0037044 C98.9576895,26.1306939 97.9790203,26.9528753 96.8348796,26.9528862 L94.7855887,26.9528862 C94.0896046,26.9514469 93.4298856,26.6422917 92.9834332,26.1083664 C92.5369808,25.5744412 92.3495043,24.870411 92.4713033,24.1851658 Z" fill-rule="nonzero"></path>
                        </g>
                    </g>
                </g>
            </g>
        </g>
    </g>
</svg>