<?xml version="1.0" encoding="UTF-8"?>
<svg width="72px" height="42px" viewBox="0 0 72 42" version="1.1" xmlns="http://www.w3.org/2000/svg" xmlns:xlink="http://www.w3.org/1999/xlink">
    <!-- Generator: Sketch 47 (45396) - http://www.bohemiancoding.com/sketch -->
    <title>sponsor/brisk</title>
    <desc>Created with Sketch.</desc>
    <defs></defs>
    <g id="Symbols" stroke="none" stroke-width="1" fill="none" fill-rule="evenodd" opacity="0.6">
        <g id="layout/sponsor_bar" transform="translate(-790.000000, -60.000000)" fill="#E9EBF0">
            <g id="sponsor-bar">
                <g id="60:60" transform="translate(60.000000, 60.000000)">
                    <g id="sponsor/brisk" transform="translate(730.000000, 0.000000)">
                        <g id="BriskMate_Logo_Secondary_Horz">
                            <g>
                                <polyline id="Fill-3" points="33.1380725 1.71926829 34.0144163 2.43873171 30.8128629 15.8923902 34.0986408 14.7365366 35.2900592 9.73239024 38.6208477 15.526 42.1787355 14.2359512 38.2686053 7.93560976 37.6445939 8.12136585 43.5208714 0.884731707 39.248951 2.40902439 35.9358939 6.46663415 37.5000142 0.227414634 33.1380725 1.71926829"></polyline>
                                <path d="M12.0277338,19.650878 L9.73219039,15.4030732 L9.05805352,15.5758537 C9.05805352,15.5758537 11.5445513,12.6054634 12.4089605,8.4037561 C7.72000947,8.03736585 3.09243666,10.5843415 3.09243666,10.5843415 L4.20542742,11.0473659 C4.20542742,11.0473659 1.03422212,21.4473171 0.215164575,27.7473171 C3.73520246,25.6725854 8.96462231,25.7941463 12.0277338,19.650878 M5.76818376,15.1473171 L6.59849396,11.9727317 C6.59849396,11.9727317 7.73739995,11.474878 8.82140658,11.5213171 C7.9535875,13.9241951 5.76818376,15.1473171 5.76818376,15.1473171 M8.71433578,19.3380976 C8.71433578,19.3380976 7.41584655,21.4445854 4.17371537,22.222439 L5.19191096,18.1043902 C6.2690978,17.9299024 7.5481506,17.1144878 7.5481506,17.1144878 L8.71433578,19.3380976" id="Fill-4"></path>
                                <path d="M12.7410845,19.5723415 L12.5020507,21.6877073 L16.0176557,20.4423902 L15.3479517,19.9161951 L16.2144068,13.4509268 C16.2144068,13.4509268 18.1277007,12.4873171 19.2192091,13.8087805 L20.8232252,8.70629268 C20.8232252,8.70629268 18.0475681,9.56029268 16.3644423,12.4582927 L16.7930665,10.024 L13.1206062,11.5773171 L13.764736,12.1530244 L12.7410845,19.5723415" id="Fill-5"></path>
                                <path d="M28.3853564,9.40356098 C29.0884774,7.81780488 32.0711153,4.46873171 32.0711153,4.46873171 L27.4963959,6.37956098 C27.4963959,6.37956098 24.4152119,10.8179024 25.0525219,12.0048293 C25.6898319,13.1927805 27.26009,13.9515122 26.7035946,15.4737561 C26.2719015,16.6623902 22.9919204,21.2810244 22.9919204,21.2810244 L27.4776415,19.6245854 C27.4776415,19.6245854 31.4327824,14.0525854 30.1503197,12.5296585 C28.9851575,11.1371707 27.9529813,10.3804878 28.3853564,9.40356098" id="Fill-6"></path>
                                <polyline id="Fill-7" points="19.8319678 18.1381951 18.8959507 19.5426341 22.7239024 18.1252195 24.816557 7.31107317 21.8059578 8.47478049 19.8319678 18.1381951"></polyline>
                                <polyline id="Fill-8" points="22.3058489 6.79682927 21.1359129 3.97292683 19.72592 4.37141463 21.8656311 7.06214634 22.3058489 6.79682927"></polyline>
                                <polyline id="Fill-9" points="25.4156761 2.84985366 24.61435 5.79941463 25.0855979 6.00531707 26.8655648 3.06463415 25.4156761 2.84985366"></polyline>
                                <polyline id="Fill-10" points="23.7806299 6.21736585 23.9156619 1.9244878 22.0736349 2.28336585 23.038636 6.38297561 23.7806299 6.21736585"></polyline>
                                <polyline id="Fill-11" points="49.765077 15.2753659 50.9046649 17.183122 54.2750083 15.9142439 53.4225337 21.9922927 55.7412645 26.0461463 57.2552593 14.7915122 58.8930334 14.1744878 59.842349 14.5381463 60.481364 11.2662439 49.765077 15.2753659"></polyline>
                                <path d="M70.5085105,4.63946341 C70.5446555,4.58482927 70.726744,4.2942439 70.6646839,4.07707317 C70.6646839,4.07707317 70.628539,4.04668293 70.5085105,4.03643902 C70.3843902,4.01595122 70.1702486,4.05146341 70.1702486,4.05146341 L70.1497892,3.98282927 C69.8541511,3.98419512 69.5990907,4.04668293 69.5990907,4.04668293 L69.6001137,3.96507317 C69.2437793,4.02892683 69.0422543,4.07604878 68.9355245,4.10609756 C68.9143831,4.1122439 68.8966517,4.11770732 68.8830121,4.12112195 C68.8792612,4.12214634 68.8755103,4.1235122 68.8707364,4.12385366 L68.8830121,4.04668293 C68.2753682,4.17370732 67.7444471,4.40795122 67.1917026,4.66370732 L67.1593085,4.58585366 C66.4111769,5.02839024 65.973005,5.37497561 65.6231494,6.10707317 C65.4812977,6.40312195 65.5068719,6.75721951 65.3339901,7.05121951 C65.1276912,7.40634146 64.6840635,7.71126829 64.6025669,8.10121951 C64.5848354,8.19239024 64.6431447,8.21731707 64.6598532,8.22209756 C64.734189,8.24156098 64.7812456,8.21560976 64.834099,8.18214634 C65.0165285,8.07321951 65.0993891,7.72970732 65.2484016,7.54292683 C65.3769548,7.36434146 67.3386692,5.0195122 69.9012077,4.44346341 C70.0086195,4.41887805 70.1027327,4.368 69.9141653,4.45678049 C67.7393322,5.47980488 65.7827327,7.56409756 65.8461568,7.59141463 C66.9963154,8.09029268 68.3742553,7.41590244 69.0906749,6.69780488 L69.020431,6.63019512 C69.4105233,6.3737561 70.0219181,5.8557561 70.1170542,5.55902439 L70.0434004,5.50712195 C70.0771584,5.47331707 70.1163722,5.43268293 70.1549041,5.39034146 C70.2312858,5.30531707 70.3083495,5.20765854 70.359498,5.11478049 L70.3011887,5.08165854 C70.3011887,5.08165854 70.4338338,4.90478049 70.56,4.67668293 L70.5085105,4.63946341" id="Fill-12"></path>
                                <polyline id="Fill-13" points="51.3588634 27.6943902 54.452664 26.6122927 48.323031 15.8066829 45.3639214 16.8802439 46.447587 18.8358049 45.3625574 19.1625854 43.2719489 29.2702439 42.5568932 30.342439 45.5654464 29.2477073 46.0622685 26.5750732 49.428179 24.6652683 47.0733033 24.6082439 46.113758 26.2967805 47.2352735 20.2586829 51.3588634 27.6943902"></polyline>
                                <polyline id="Fill-14" points="39.048108 16.5541463 39.7689605 17.8902927 37.4761449 21.5760488 35.7899503 17.5973171 32.1665925 18.8924878 33.0824911 19.4767317 29.7223775 32.9877561 33.3825622 31.0444878 34.7656169 22.2142439 36.704826 26.0707317 40.688951 19.6450732 36.1766327 41.7910244 39.0920957 40.6013659 42.1101965 39.6083902 39.6922377 38.4166829 44.3863036 14.5699024 39.048108 16.5541463"></polyline>
                                <polyline id="Fill-15" points="61.3621407 11.0497561 62.2077954 12.4825366 60.0394412 24.0588293 61.9390954 23.4127805 61.9353445 23.4278049 68.7991286 21.0286829 69.5124793 21.4005366 69.9390575 18.0927805 63.0606109 20.5318537 63.6222212 17.4385366 67.7106891 15.8138537 68.4867819 16.150878 69.1309117 13.1565854 64.0702818 14.974878 64.5885863 12.1236585 69.9711106 10.1018537 70.7478854 10.4381951 71.3926971 7.4442439 61.3621407 11.0497561"></polyline>
                                <polyline id="Fill-16" points="1.22654037 35.8925854 2.44182808 30.9092683 4.08744494 30.2956585 3.95139001 30.8498537 3.05185887 31.1861951 2.63721525 32.8866829 3.53674639 32.5510244 3.4023964 33.1065854 2.5015013 33.4419024 2.10697608 35.0597561 3.00684821 34.7237561 2.87113426 35.2786341 1.22654037 35.8925854"></polyline>
                                <polyline id="Fill-17" points="6.67930855 29.3276098 7.42403031 29.05 6.20737864 34.0336585 5.46095193 34.3116098 5.70475965 33.3189756 5.45992896 31.3473659 4.66371774 34.6093659 3.91865498 34.8876585 5.13462467 29.9046829 5.87934644 29.6260488 6.09041913 31.7362927 6.67930855 29.3276098"></polyline>
                                <polyline id="Fill-18" points="7.37049491 33.5993171 8.58782856 28.616 10.2310585 28.0013659 10.0970495 28.5572683 9.19717736 28.8932683 8.78151077 30.5930732 9.68206488 30.2574146 9.54498698 30.8133171 8.64613782 31.1486341 8.24990765 32.7661463 9.15114374 32.4304878 9.01611177 32.9853659 7.37049491 33.5993171"></polyline>
                                <path d="M11.6686716,31.9954634 L11.6710585,30.1652195 L11.2209519,30.332878 L10.7299266,32.3464878 L9.98486384,32.6237561 L11.2015155,27.6397561 L12.6606109,27.0958049 C13.2287,26.8837561 13.4438646,27.0616585 13.3047407,27.6305366 L13.0053516,28.8601463 C12.8989628,29.2941463 12.6848212,29.6246829 12.3619039,29.8503902 L12.3755435,31.7321951 L11.6686716,31.9954634 Z M11.3610987,29.764 L11.8500781,29.5809756 C12.0717215,29.4983415 12.2128913,29.3364878 12.2715416,29.0957561 L12.5334217,28.0194634 C12.592413,27.7787317 12.5102344,27.7001951 12.2875681,27.7835122 L11.7985887,27.9658537 L11.3610987,29.764 L11.3610987,29.764 Z" id="Fill-19"></path>
                                <path d="M16.3398911,28.0249268 L15.7486147,30.4732195 L14.3140706,31.0079512 C13.7193843,31.2302439 13.4902392,31.0591707 13.629022,30.4943902 L14.4317121,27.2040488 C14.5698129,26.6399512 14.936718,26.245561 15.5307222,26.0236098 L16.0121999,25.8446829 C16.6062041,25.6227317 16.8353493,25.7934634 16.6972484,26.3585854 L16.5267535,27.0589268 L15.7810088,27.3372195 L15.940592,26.6843415 C15.9876486,26.4903902 15.9003552,26.4354146 15.6783708,26.5190732 L15.5303812,26.5730244 C15.3336301,26.646439 15.2122377,26.7799512 15.1634762,26.9742439 L14.3839735,30.1679512 C14.3382808,30.3622439 14.4252332,30.4172195 14.6468766,30.3345854 L15.1436988,30.1495122 L15.4594554,28.8587805 L15.0103718,29.026439 L15.1447218,28.4705366 L16.3398911,28.0249268" id="Fill-20"></path>
                                <polyline id="Fill-21" points="16.9134359 30.0378537 18.1304286 25.0538537 18.8741274 24.7762439 17.6578167 29.759561 16.9134359 30.0378537"></polyline>
                                <polyline id="Fill-22" points="20.7645749 28.0956098 20.628861 28.6504878 18.7124982 29.3658537 18.7827421 28.904878 20.9483685 24.5133171 19.8704996 24.915561 20.0072366 24.3535122 21.799479 23.6842439 21.7234383 24.1418049 19.5854322 28.5357561 20.7645749 28.0956098"></polyline>
                                <polyline id="Fill-23" points="21.6371679 28.2741951 22.8545015 23.2905366 23.5982003 23.0125854 22.3818897 27.9969268 21.6371679 28.2741951"></polyline>
                                <polyline id="Fill-24" points="26.3070234 22.0025366 27.0514042 21.7249268 25.8344116 26.7082439 25.0900308 26.9855122 25.3317926 25.9939024 25.0869619 24.0222927 24.2910916 27.2846341 23.5453469 27.5619024 24.7626806 22.5779024 25.5070613 22.3006341 25.718134 24.4112195 26.3070234 22.0025366"></polyline>
                                <path d="M29.9157187,22.9337073 L29.3264883,25.3557073 L27.8912621,25.8856585 C27.2965759,26.1052195 27.0674307,25.9361951 27.2048496,25.3772195 L28.0089036,22.1220488 C28.1459815,21.5627317 28.5125456,21.1744878 29.1068908,20.9542439 L29.5880275,20.776 C30.1833957,20.5567805 30.4108359,20.7264878 30.27444,21.2847805 L30.1022401,21.9786341 L29.3578593,22.2541951 L29.5174426,21.6088293 C29.5644992,21.415561 29.4772058,21.3605854 29.2541984,21.442878 L29.1065498,21.4978537 C28.9111627,21.5699024 28.7887473,21.7023902 28.7413498,21.8949756 L27.961506,25.0541951 C27.9144494,25.2460976 28.0014018,25.3017561 28.2250912,25.2187805 L28.7205494,25.0360976 L29.035965,23.7586829 L28.5861994,23.9246341 L28.7208904,23.3752195 L29.9157187,22.9337073" id="Fill-25"></path>
                                <polyline id="Fill-26" points="8.21921857 38.6454634 9.29708738 34.2310244 9.95690268 33.9851707 8.87869287 38.3989268 8.21921857 38.6454634"></polyline>
                                <path d="M12.1975468,36.1100976 L12.0990007,36.5157561 C11.9765854,37.0156585 11.652986,37.3639512 11.1264978,37.5609756 L10.6999195,37.7194146 C10.1734312,37.9160976 9.97122425,37.7648293 10.0919346,37.2645854 L10.8046034,34.3505366 C10.9266777,33.8513171 11.250959,33.5026829 11.7777883,33.306 L12.2043666,33.1472195 C12.7301729,32.9501951 12.9316978,33.1021463 12.8106465,33.6023902 L12.658906,34.2228293 L11.9990907,34.4686829 L12.1508312,33.8482439 C12.1931139,33.6768293 12.1160502,33.6269756 11.9192991,33.6997073 L11.787336,33.7485366 C11.6144542,33.8140976 11.5060194,33.9325854 11.4644187,34.1043415 L10.7531139,37.0180488 C10.7098082,37.1908293 10.7759602,37.2437561 10.949865,37.178878 L11.1152451,37.1177561 C11.2884679,37.0525366 11.3972437,36.9340488 11.4388444,36.7619512 L11.5377315,36.3559512 L12.1975468,36.1100976" id="Fill-27"></path>
                                <polyline id="Fill-28" points="12.8437225 36.9193659 13.9215913 32.5056098 15.3779588 31.9616585 15.2579304 32.4533659 14.4596732 32.751122 14.0927682 34.2576585 14.8900024 33.9599024 14.769633 34.4519512 13.9720578 34.7493659 13.6222022 36.1814634 14.4201184 35.8843902 14.299067 36.3757561 12.8437225 36.9193659"></polyline>
                                <path d="M16.3044281,31.6157561 L17.4521999,31.1879024 C18.0710964,30.9570732 18.3108122,31.1240488 18.1730523,31.6898537 L17.4586787,34.6155122 C17.3550178,35.0423415 17.0389202,35.3537561 16.511409,35.5500976 L15.2272413,36.0291707 L16.3044281,31.6157561 Z M16.0179967,35.2479024 L16.5120909,35.0631707 C16.6866777,34.9993171 16.7896566,34.9009756 16.8210277,34.7705366 L17.5118731,31.9415122 C17.5640445,31.7287805 17.4917547,31.6587805 17.2950036,31.7321951 L16.8343263,31.9042927 L16.0179967,35.2479024 L16.0179967,35.2479024 Z" id="Fill-29"></path>
                                <polyline id="Fill-30" points="21.8189155 30.0047317 20.861757 33.927122 20.2019417 34.1729756 21.1594412 30.2505854 20.526905 30.486878 20.6479564 29.9944878 22.57148 29.2767317 22.4507696 29.7680976 21.8189155 30.0047317"></polyline>
                                <polyline id="Fill-31" points="22.2833436 33.3958049 23.3615534 28.9823902 24.8179209 28.438439 24.6985745 28.9298049 23.9013403 29.2279024 23.5327303 30.7340976 24.3299645 30.4363415 24.2092541 30.9280488 23.4133839 31.2254634 23.0635283 32.6579024 23.8607625 32.3608293 23.7400521 32.8521951 22.2833436 33.3958049"></polyline>
                                <path d="M25.2936017,32.2727317 L24.6341274,32.5192683 L25.5264978,28.8611707 C25.6495951,28.3571707 25.9745584,28.0068293 26.5013876,27.8104878 L26.9954819,27.6254146 C27.5226521,27.4290732 27.7245181,27.5820488 27.6024438,28.0860488 L26.7087094,31.7441463 L26.0492351,31.9910244 L26.4437604,30.3741951 L25.6877859,30.6559024 L25.2936017,32.2727317 Z M26.5743595,29.8394634 L26.9330807,28.3701463 C26.9750225,28.1977073 26.8996637,28.1475122 26.7073455,28.2199024 L26.5293488,28.2861463 C26.3363486,28.3581951 26.2193891,28.4794146 26.1781293,28.6518537 L25.818385,30.1211707 L26.5743595,29.8394634 L26.5743595,29.8394634 Z" id="Fill-32"></path>
                            </g>
                        </g>
                    </g>
                </g>
            </g>
        </g>
    </g>
</svg>